<svg xmlns="http://www.w3.org/2000/svg" width="1200" height="630" viewBox="0 0 1200 630">
  <defs>
    <pattern id="dots" x="0" y="0" width="24" height="24" patternUnits="userSpaceOnUse">
      <circle cx="1" cy="1" r="1" fill="#cbd5e1" opacity="0.4"/>
    </pattern>
  </defs>

  <!-- Background -->
  <rect width="1200" height="630" fill="#f8fafc"/>
  <rect width="1200" height="630" fill="url(#dots)"/>

  <!-- NAVBAR -->
  <rect x="60" y="44" width="1080" height="52" rx="16" fill="#ffffff" stroke="#e2e8f0" stroke-width="1"/>
  <rect x="80" y="56" width="32" height="32" rx="8" fill="#ffffff" stroke="#cbd5e1" stroke-width="1"/>
  <ellipse cx="96" cy="69" rx="5" ry="6" fill="#0f172a"/>
  <circle cx="96" cy="79" r="7" fill="#0f172a"/>
  <text x="122" y="78" font-family="system-ui,-apple-system,sans-serif" font-size="15" font-weight="700" fill="#0f172a">PantauBBM</text>
  <text x="1120" y="78" font-family="system-ui,-apple-system,sans-serif" font-size="13" font-weight="600" fill="#475569" text-anchor="end">Tentang</text>

  <!-- HERO TEXT -->
  <text x="60" y="168" font-family="system-ui,-apple-system,sans-serif" font-size="40" font-weight="800" fill="#0f172a" letter-spacing="-1">Pantau Harga BBM</text>
  <text x="60" y="214" font-family="system-ui,-apple-system,sans-serif" font-size="40" font-weight="800" fill="#0f172a" letter-spacing="-1">Seluruh Indonesia</text>
  <text x="60" y="252" font-family="system-ui,-apple-system,sans-serif" font-size="15" fill="#64748b">Cek harga Pertalite, Pertamax, Dexlite dan lainnya per wilayah.</text>

  <!-- SEARCH BAR -->
  <rect x="60" y="272" width="480" height="42" rx="21" fill="#ffffff" stroke="#e2e8f0" stroke-width="1.5"/>
  <circle cx="90" cy="293" r="7" fill="none" stroke="#94a3b8" stroke-width="1.5"/>
  <line x1="95" y1="298" x2="100" y2="303" stroke="#94a3b8" stroke-width="1.5" stroke-linecap="round"/>
  <text x="112" y="298" font-family="system-ui,-apple-system,sans-serif" font-size="13" fill="#94a3b8">Cari wilayah...</text>

  <!-- FILTER PILLS -->
  <rect x="60" y="330" width="70" height="32" rx="16" fill="#0f172a"/>
  <text x="95" y="351" font-family="system-ui,-apple-system,sans-serif" font-size="12" font-weight="600" fill="#ffffff" text-anchor="middle">Semua</text>

  <rect x="142" y="330" width="82" height="32" rx="16" fill="#ffffff" stroke="#e2e8f0" stroke-width="1"/>
  <text x="183" y="351" font-family="system-ui,-apple-system,sans-serif" font-size="12" font-weight="600" fill="#475569" text-anchor="middle">Pertalite</text>

  <rect x="236" y="330" width="86" height="32" rx="16" fill="#ffffff" stroke="#e2e8f0" stroke-width="1"/>
  <text x="279" y="351" font-family="system-ui,-apple-system,sans-serif" font-size="12" font-weight="600" fill="#475569" text-anchor="middle">Pertamax</text>

  <rect x="334" y="330" width="74" height="32" rx="16" fill="#ffffff" stroke="#e2e8f0" stroke-width="1"/>
  <text x="371" y="351" font-family="system-ui,-apple-system,sans-serif" font-size="12" font-weight="600" fill="#475569" text-anchor="middle">Dexlite</text>

  <rect x="420" y="330" width="58" height="32" rx="16" fill="#ffffff" stroke="#e2e8f0" stroke-width="1"/>
  <text x="449" y="351" font-family="system-ui,-apple-system,sans-serif" font-size="12" font-weight="600" fill="#475569" text-anchor="middle">Solar</text>

  <!-- SMALL CARD 1: DKI Jakarta -->
  <rect x="60" y="382" width="162" height="210" rx="22" fill="#ffffff" stroke="#e2e8f0" stroke-width="1"/>
  <text x="78" y="410" font-family="system-ui,-apple-system,sans-serif" font-size="9" font-weight="600" fill="#64748b" letter-spacing="0.12em">WILAYAH</text>
  <text x="78" y="432" font-family="system-ui,-apple-system,sans-serif" font-size="15" font-weight="800" fill="#0f172a">DKI Jakarta</text>
  <rect x="68" y="442" width="144" height="22" rx="5" fill="#f8fafc" stroke="#f1f5f9" stroke-width="1"/>
  <text x="78" y="457" font-family="system-ui,-apple-system,sans-serif" font-size="10" fill="#475569">Pertalite</text>
  <text x="202" y="457" font-family="system-ui,-apple-system,sans-serif" font-size="10" font-weight="700" fill="#0f172a" text-anchor="end">10.000</text>
  <rect x="68" y="466" width="144" height="22" rx="5" fill="#ecfdf5"/>
  <text x="78" y="481" font-family="system-ui,-apple-system,sans-serif" font-size="10" fill="#475569">Pertamax</text>
  <text x="202" y="481" font-family="system-ui,-apple-system,sans-serif" font-size="10" font-weight="700" fill="#0f172a" text-anchor="end">12.500</text>
  <rect x="68" y="490" width="144" height="22" rx="5" fill="#f8fafc" stroke="#f1f5f9" stroke-width="1"/>
  <text x="78" y="505" font-family="system-ui,-apple-system,sans-serif" font-size="10" fill="#475569">Dexlite</text>
  <text x="202" y="505" font-family="system-ui,-apple-system,sans-serif" font-size="10" font-weight="700" fill="#0f172a" text-anchor="end">13.950</text>
  <rect x="68" y="514" width="144" height="22" rx="5" fill="#fffbeb"/>
  <text x="78" y="529" font-family="system-ui,-apple-system,sans-serif" font-size="10" fill="#475569">Solar</text>
  <text x="202" y="529" font-family="system-ui,-apple-system,sans-serif" font-size="10" font-weight="700" fill="#0f172a" text-anchor="end">6.800</text>
  <text x="78" y="574" font-family="system-ui,-apple-system,sans-serif" font-size="11" font-weight="600" fill="#64748b">Lihat detail &#x2192;</text>

  <!-- SMALL CARD 2: Jawa Timur -->
  <rect x="236" y="382" width="162" height="210" rx="22" fill="#ffffff" stroke="#e2e8f0" stroke-width="1"/>
  <text x="254" y="410" font-family="system-ui,-apple-system,sans-serif" font-size="9" font-weight="600" fill="#64748b" letter-spacing="0.12em">WILAYAH</text>
  <text x="254" y="432" font-family="system-ui,-apple-system,sans-serif" font-size="15" font-weight="800" fill="#0f172a">Jawa Timur</text>
  <rect x="244" y="442" width="144" height="22" rx="5" fill="#ecfdf5"/>
  <text x="254" y="457" font-family="system-ui,-apple-system,sans-serif" font-size="10" fill="#475569">Pertalite</text>
  <text x="378" y="457" font-family="system-ui,-apple-system,sans-serif" font-size="10" font-weight="700" fill="#0f172a" text-anchor="end">10.000</text>
  <rect x="244" y="466" width="144" height="22" rx="5" fill="#f8fafc" stroke="#f1f5f9" stroke-width="1"/>
  <text x="254" y="481" font-family="system-ui,-apple-system,sans-serif" font-size="10" fill="#475569">Pertamax</text>
  <text x="378" y="481" font-family="system-ui,-apple-system,sans-serif" font-size="10" font-weight="700" fill="#0f172a" text-anchor="end">12.500</text>
  <rect x="244" y="490" width="144" height="22" rx="5" fill="#f8fafc" stroke="#f1f5f9" stroke-width="1"/>
  <text x="254" y="505" font-family="system-ui,-apple-system,sans-serif" font-size="10" fill="#475569">Dexlite</text>
  <text x="378" y="505" font-family="system-ui,-apple-system,sans-serif" font-size="10" font-weight="700" fill="#0f172a" text-anchor="end">13.950</text>
  <rect x="244" y="514" width="144" height="22" rx="5" fill="#fffbeb"/>
  <text x="254" y="529" font-family="system-ui,-apple-system,sans-serif" font-size="10" fill="#475569">Solar</text>
  <text x="378" y="529" font-family="system-ui,-apple-system,sans-serif" font-size="10" font-weight="700" fill="#0f172a" text-anchor="end">6.800</text>
  <text x="254" y="574" font-family="system-ui,-apple-system,sans-serif" font-size="11" font-weight="600" fill="#64748b">Lihat detail &#x2192;</text>

  <!-- SMALL CARD 3: Jawa Tengah -->
  <rect x="412" y="382" width="162" height="210" rx="22" fill="#ffffff" stroke="#e2e8f0" stroke-width="1"/>
  <text x="430" y="410" font-family="system-ui,-apple-system,sans-serif" font-size="9" font-weight="600" fill="#64748b" letter-spacing="0.12em">WILAYAH</text>
  <text x="430" y="432" font-family="system-ui,-apple-system,sans-serif" font-size="14" font-weight="800" fill="#0f172a">Jawa Tengah</text>
  <rect x="420" y="442" width="144" height="22" rx="5" fill="#f8fafc" stroke="#f1f5f9" stroke-width="1"/>
  <text x="430" y="457" font-family="system-ui,-apple-system,sans-serif" font-size="10" fill="#475569">Pertalite</text>
  <text x="554" y="457" font-family="system-ui,-apple-system,sans-serif" font-size="10" font-weight="700" fill="#0f172a" text-anchor="end">10.000</text>
  <rect x="420" y="466" width="144" height="22" rx="5" fill="#f8fafc" stroke="#f1f5f9" stroke-width="1"/>
  <text x="430" y="481" font-family="system-ui,-apple-system,sans-serif" font-size="10" fill="#475569">Pertamax</text>
  <text x="554" y="481" font-family="system-ui,-apple-system,sans-serif" font-size="10" font-weight="700" fill="#0f172a" text-anchor="end">12.500</text>
  <rect x="420" y="490" width="144" height="22" rx="5" fill="#f8fafc" stroke="#f1f5f9" stroke-width="1"/>
  <text x="430" y="505" font-family="system-ui,-apple-system,sans-serif" font-size="10" fill="#475569">Dexlite</text>
  <text x="554" y="505" font-family="system-ui,-apple-system,sans-serif" font-size="10" font-weight="700" fill="#0f172a" text-anchor="end">13.950</text>
  <rect x="420" y="514" width="144" height="22" rx="5" fill="#fffbeb"/>
  <text x="430" y="529" font-family="system-ui,-apple-system,sans-serif" font-size="10" fill="#475569">Solar</text>
  <text x="554" y="529" font-family="system-ui,-apple-system,sans-serif" font-size="10" font-weight="700" fill="#0f172a" text-anchor="end">6.800</text>
  <text x="430" y="574" font-family="system-ui,-apple-system,sans-serif" font-size="11" font-weight="600" fill="#64748b">Lihat detail &#x2192;</text>

  <!-- LARGE CARD: Jawa Barat -->
  <rect x="622" y="116" width="518" height="482" rx="28" fill="#ffffff" stroke="#e2e8f0" stroke-width="1"/>

  <text x="656" y="162" font-family="system-ui,-apple-system,sans-serif" font-size="9" font-weight="600" fill="#64748b" letter-spacing="0.14em">WILAYAH</text>
  <text x="656" y="196" font-family="system-ui,-apple-system,sans-serif" font-size="30" font-weight="800" fill="#0f172a" letter-spacing="-0.6">Jawa Barat</text>
  <rect x="1058" y="168" width="62" height="26" rx="13" fill="#f1f5f9" stroke="#e2e8f0" stroke-width="1"/>
  <text x="1089" y="185" font-family="system-ui,-apple-system,sans-serif" font-size="11" font-weight="600" fill="#475569" text-anchor="middle">5 produk</text>

  <!-- Inner price box -->
  <rect x="638" y="212" width="486" height="340" rx="20" fill="#f8fafc" stroke="#e2e8f0" stroke-width="1"/>

  <!-- Row 1: Pertalite green -->
  <rect x="638" y="212" width="486" height="68" rx="20" fill="#ecfdf5"/>
  <rect x="638" y="246" width="486" height="34" fill="#ecfdf5"/>
  <text x="664" y="242" font-family="system-ui,-apple-system,sans-serif" font-size="15" font-weight="600" fill="#0f172a">Pertalite</text>
  <rect x="664" y="248" width="54" height="16" rx="8" fill="#dcfce7"/>
  <text x="691" y="260" font-family="system-ui,-apple-system,sans-serif" font-size="9" font-weight="700" fill="#15803d" text-anchor="middle">Termurah</text>
  <rect x="984" y="228" width="120" height="28" rx="14" fill="#ffffff" stroke="#e2e8f0" stroke-width="1"/>
  <text x="1044" y="247" font-family="system-ui,-apple-system,sans-serif" font-size="13" font-weight="700" fill="#0f172a" text-anchor="middle">Rp 10.000</text>

  <rect x="650" y="280" width="462" height="1" fill="#e2e8f0"/>

  <!-- Row 2: Pertamax -->
  <text x="664" y="312" font-family="system-ui,-apple-system,sans-serif" font-size="15" font-weight="600" fill="#0f172a">Pertamax</text>
  <rect x="984" y="296" width="120" height="28" rx="14" fill="#ffffff" stroke="#e2e8f0" stroke-width="1"/>
  <text x="1044" y="315" font-family="system-ui,-apple-system,sans-serif" font-size="13" font-weight="700" fill="#0f172a" text-anchor="middle">Rp 12.500</text>

  <rect x="650" y="336" width="462" height="1" fill="#e2e8f0"/>

  <!-- Row 3: Pertamax Turbo -->
  <text x="664" y="368" font-family="system-ui,-apple-system,sans-serif" font-size="15" font-weight="600" fill="#0f172a">Pertamax Turbo</text>
  <rect x="984" y="352" width="120" height="28" rx="14" fill="#ffffff" stroke="#e2e8f0" stroke-width="1"/>
  <text x="1044" y="371" font-family="system-ui,-apple-system,sans-serif" font-size="13" font-weight="700" fill="#0f172a" text-anchor="middle">Rp 14.000</text>

  <rect x="650" y="392" width="462" height="1" fill="#e2e8f0"/>

  <!-- Row 4: Dexlite -->
  <text x="664" y="424" font-family="system-ui,-apple-system,sans-serif" font-size="15" font-weight="600" fill="#0f172a">Dexlite</text>
  <rect x="984" y="408" width="120" height="28" rx="14" fill="#ffffff" stroke="#e2e8f0" stroke-width="1"/>
  <text x="1044" y="427" font-family="system-ui,-apple-system,sans-serif" font-size="13" font-weight="700" fill="#0f172a" text-anchor="middle">Rp 13.950</text>

  <rect x="650" y="448" width="462" height="1" fill="#e2e8f0"/>

  <!-- Row 5: Solar amber -->
  <rect x="638" y="450" width="486" height="102" fill="#fffbeb"/>
  <rect x="638" y="490" width="486" height="62" rx="20" fill="#fffbeb"/>
  <text x="664" y="480" font-family="system-ui,-apple-system,sans-serif" font-size="15" font-weight="600" fill="#0f172a">Solar</text>
  <rect x="664" y="486" width="54" height="16" rx="8" fill="#fef3c7"/>
  <text x="691" y="498" font-family="system-ui,-apple-system,sans-serif" font-size="9" font-weight="700" fill="#b45309" text-anchor="middle">Termahal</text>
  <rect x="984" y="466" width="120" height="28" rx="14" fill="#ffffff" stroke="#e2e8f0" stroke-width="1"/>
  <text x="1044" y="485" font-family="system-ui,-apple-system,sans-serif" font-size="13" font-weight="700" fill="#0f172a" text-anchor="middle">Rp 6.800</text>

  <!-- Card CTA -->
  <text x="656" y="546" font-family="system-ui,-apple-system,sans-serif" font-size="13" font-weight="600" fill="#64748b">Lihat detail wilayah &#x2192;</text>

  <!-- Domain watermark -->
  <text x="600" y="608" font-family="system-ui,-apple-system,sans-serif" font-size="14" fill="#94a3b8" text-anchor="middle">pantaubbm.id</text>
</svg>
