<svg xmlns="http://www.w3.org/2000/svg" viewBox="0 0 1500 1499.999933"><defs><clipPath id="2dbb202671"><path d="M 884 111.5625 L 1391 111.5625 L 1391 389 L 884 389 Z M 884 111.5625 " clip-rule="nonzero"/></clipPath><clipPath id="45f803211b"><path d="M 0 1114 L 195 1114 L 195 1388.8125 L 0 1388.8125 Z M 0 1114 " clip-rule="nonzero"/></clipPath><clipPath id="d6f354922a"><path d="M 819.464844 966.171875 L 1499.714844 966.171875 L 1499.714844 1320.921875 L 819.464844 1320.921875 Z M 819.464844 966.171875 " clip-rule="nonzero"/></clipPath></defs><path fill="#000000" d="M 276.417969 1149.835938 C 261.492188 1139.753906 250.800781 1188.636719 214.011719 1166.589844 C 174.007812 1142.585938 138.09375 1115.105469 100.101562 1087.839844 C 82.933594 1075.515625 82.105469 1053.289062 93.875 1035.421875 L 297.28125 726.519531 C 339.5625 662.316406 236.953125 636.285156 303.703125 560.425781 C 359.851562 496.582031 420.914062 439.625 484.21875 382.238281 C 524.546875 345.679688 562.109375 294.554688 621.71875 314.070312 C 685.367188 334.917969 687 362.417969 719.019531 343.582031 C 767.363281 315.113281 815.925781 272.707031 847.550781 312.082031 C 879.160156 351.4375 908.363281 389.523438 933.816406 433.527344 C 959.847656 478.515625 890.746094 504.796875 869.722656 539.542969 L 897.597656 686.101562 C 901.546875 706.839844 906.085938 731.988281 894.730469 751.203125 L 771.9375 958.625 L 631.390625 1189.625 C 598.542969 1243.601562 540.101562 1266.742188 476.183594 1258.363281 C 435.679688 1253.035156 400.125 1233.394531 366.058594 1210.378906 L 276.4375 1149.851562 Z M 554.308594 941.261719 L 504.222656 1136.253906 C 500.832031 1149.421875 475.304688 1146.515625 469.152344 1139.773438 C 463.394531 1133.457031 457.6875 1120.414062 460.164062 1107.410156 C 473.222656 1039.011719 488.382812 973.765625 507.433594 907.144531 C 524.207031 848.539062 585.035156 826.902344 640.199219 815.097656 C 610.277344 777.984375 521.390625 752.53125 488.382812 803.367188 L 314.199219 1071.621094 C 348.121094 1098.726562 380.605469 1118.53125 415.066406 1141.117188 C 458.945312 1169.871094 537.929688 1185.75 570.882812 1131.125 L 663.175781 978.125 C 682.746094 945.691406 693.566406 908.703125 685.816406 871.605469 C 628.878906 884.808594 569.84375 880.808594 554.308594 941.261719 Z M 554.308594 941.261719 " fill-opacity="1" fill-rule="nonzero"/><g clip-path="url(#2dbb202671)"><path fill="#000000" d="M 1075.800781 299.882812 L 974.054688 381.289062 C 968.042969 386.097656 962.449219 388.984375 956.042969 387.960938 C 945.675781 386.3125 907.160156 320.980469 884.84375 299.972656 L 1004.171875 204.699219 C 1034.703125 180.320312 1069.273438 165.394531 1107.949219 157.125 C 1194.71875 138.578125 1279.460938 123.671875 1367.878906 111.527344 C 1379.414062 115.382812 1398.179688 222.945312 1386.339844 225.582031 L 1138.875 272.722656 C 1116.398438 277.011719 1095.769531 283.917969 1075.820312 299.882812 Z M 1075.800781 299.882812 " fill-opacity="1" fill-rule="nonzero"/></g><path fill="#000000" d="M 1416.027344 627.570312 C 1373.800781 639.570312 1333.941406 615.511719 1313.597656 590.238281 C 1260.695312 524.476562 1306.851562 456.773438 1345.832031 392.785156 L 1393.960938 313.75 L 1477.699219 451.464844 C 1497.753906 484.453125 1506.6875 525.75 1493.21875 563.4375 C 1481.878906 595.097656 1452.066406 617.308594 1416.027344 627.550781 Z M 1416.027344 627.570312 " fill-opacity="1" fill-rule="nonzero"/><g clip-path="url(#45f803211b)"><path fill="#000000" d="M 139.402344 1241.324219 C 109.554688 1283.765625 99.667969 1337.777344 90.324219 1388.472656 C 57.171875 1387.234375 30.371094 1389.386719 0.378906 1381.53125 C -0.769531 1309.777344 22.605469 1245.125 56.847656 1185.800781 C 38.675781 1158.695312 51.539062 1143.089844 74.589844 1114.460938 L 194.761719 1195.597656 C 196.144531 1210.648438 168.824219 1256.371094 139.402344 1241.324219 Z M 139.402344 1241.324219 " fill-opacity="1" fill-rule="nonzero"/></g><g clip-path="url(#d6f354922a)"><path fill="#000000" d="M 967.496094 1025.304688 C 885.890625 1025.304688 819.734375 1091.492188 819.734375 1173.136719 C 819.734375 1254.78125 885.890625 1320.96875 967.496094 1320.96875 C 1049.105469 1320.96875 1115.261719 1254.78125 1115.261719 1173.136719 C 1115.261719 1091.492188 1049.105469 1025.304688 967.496094 1025.304688 Z M 967.496094 1291.402344 C 902.210938 1291.402344 849.289062 1238.453125 849.289062 1173.136719 C 849.289062 1107.816406 902.214844 1054.867188 967.496094 1054.867188 C 1032.78125 1054.867188 1085.707031 1107.820312 1085.707031 1173.136719 C 1085.707031 1238.453125 1032.785156 1291.402344 967.496094 1291.402344 Z M 974.578125 1261.835938 C 974.578125 1265.75 971.40625 1268.921875 967.496094 1268.921875 C 914.707031 1268.921875 871.761719 1225.953125 871.761719 1173.136719 C 871.761719 1169.226562 874.933594 1166.054688 878.839844 1166.054688 C 882.75 1166.054688 885.921875 1169.226562 885.921875 1173.136719 C 885.921875 1218.140625 922.515625 1254.753906 967.496094 1254.753906 C 971.40625 1254.753906 974.578125 1257.925781 974.578125 1261.835938 Z M 1351.679688 1025.304688 C 1270.070312 1025.304688 1203.917969 1091.488281 1203.917969 1173.136719 C 1203.917969 1254.78125 1270.070312 1320.96875 1351.679688 1320.96875 C 1433.285156 1320.96875 1499.441406 1254.78125 1499.441406 1173.136719 C 1499.441406 1091.492188 1433.285156 1025.304688 1351.679688 1025.304688 Z M 1351.679688 1291.402344 C 1286.394531 1291.402344 1233.46875 1238.453125 1233.46875 1173.136719 C 1233.46875 1107.816406 1286.394531 1054.867188 1351.679688 1054.867188 C 1416.964844 1054.867188 1469.886719 1107.820312 1469.886719 1173.136719 C 1469.886719 1238.453125 1416.964844 1291.402344 1351.679688 1291.402344 Z M 1358.757812 1261.835938 C 1358.757812 1265.75 1355.589844 1268.921875 1351.679688 1268.921875 C 1298.886719 1268.921875 1255.941406 1225.953125 1255.941406 1173.136719 C 1255.941406 1169.226562 1259.113281 1166.054688 1263.019531 1166.054688 C 1266.929688 1166.054688 1270.101562 1169.226562 1270.101562 1173.136719 C 1270.101562 1218.140625 1306.695312 1254.753906 1351.679688 1254.753906 C 1355.589844 1254.753906 1358.757812 1257.925781 1358.757812 1261.835938 Z M 1285.480469 1025.304688 L 1218.695312 1025.304688 C 1218.695312 1008.972656 1212.078125 994.191406 1201.382812 983.488281 C 1190.6875 972.789062 1175.910156 966.171875 1159.589844 966.171875 C 1143.265625 966.171875 1128.492188 972.789062 1117.792969 983.488281 C 1107.097656 994.191406 1100.484375 1008.972656 1100.484375 1025.304688 L 1033.695312 1025.304688 C 1061.882812 1037.988281 1085.816406 1058.507812 1102.699219 1084.078125 C 1119.585938 1109.648438 1129.421875 1140.265625 1129.421875 1173.136719 C 1148.53125 1164.160156 1170.644531 1164.160156 1189.757812 1173.136719 C 1189.757812 1140.265625 1199.59375 1109.648438 1216.480469 1084.078125 C 1233.363281 1058.511719 1257.292969 1037.988281 1285.480469 1025.304688 Z M 1190.933594 1056.664062 C 1182.910156 1064.691406 1171.828125 1069.652344 1159.589844 1069.652344 C 1147.347656 1069.652344 1136.265625 1064.6875 1128.242188 1056.664062 C 1120.222656 1048.636719 1115.261719 1037.550781 1115.261719 1025.304688 C 1115.261719 1013.054688 1120.222656 1001.96875 1128.242188 993.941406 C 1136.265625 985.917969 1147.347656 980.953125 1159.589844 980.953125 C 1171.832031 980.953125 1182.914062 985.917969 1190.933594 993.941406 C 1198.953125 1001.96875 1203.917969 1013.054688 1203.917969 1025.304688 C 1203.917969 1037.550781 1198.957031 1048.636719 1190.933594 1056.664062 Z M 1190.933594 1056.664062 " fill-opacity="1" fill-rule="nonzero"/></g></svg>